HIERARCHY
ROOT Hips
{
 OFFSET 0.000000 0.000000 0.000000
 CHANNELS 6 Xposition Yposition Zposition Yrotation Xrotation Zrotation
 JOINT Chest
 {
  OFFSET 0.000000 9.585900 0.002600
  CHANNELS 3 Yrotation Xrotation Zrotation
  JOINT Chest2
  {
   OFFSET 0.000000 9.601200 -0.005300
   CHANNELS 3 Yrotation Xrotation Zrotation
   JOINT Chest3
   {
    OFFSET 0.000000 9.561800 0.000000
    CHANNELS 3 Yrotation Xrotation Zrotation
    JOINT Chest4
    {
     OFFSET 0.000000 9.552100 0.000000
     CHANNELS 3 Yrotation Xrotation Zrotation
     JOINT Neck
     {
      OFFSET 0.000000 14.453000 0.000000
      CHANNELS 3 Yrotation Xrotation Zrotation
      JOINT Head
      {
       OFFSET 0.000000 8.936500 -0.011300
       CHANNELS 3 Yrotation Xrotation Zrotation
       End Site
       {
        OFFSET 0.000000 17.073600 -0.006000
       }
      }
     }
     JOINT RightCollar
     {
      OFFSET -2.921100 9.558500 0.000000
      CHANNELS 3 Yrotation Xrotation Zrotation
      JOINT RightShoulder
      {
       OFFSET -13.519700 0.000000 0.000000
       CHANNELS 3 Yrotation Xrotation Zrotation
       JOINT RightElbow
       {
        OFFSET 0.000000 -29.696600 0.000000
        CHANNELS 3 Yrotation Xrotation Zrotation
        JOINT RightWrist
        {
         OFFSET 0.000000 -24.004700 0.000000
         CHANNELS 3 Yrotation Xrotation Zrotation
         End Site
         {
          OFFSET 0.000000 -17.728500 0.000000
         }
        }
       }
      }
     }
     JOINT LeftCollar
     {
      OFFSET 2.921100 9.558500 0.000000
      CHANNELS 3 Yrotation Xrotation Zrotation
      JOINT LeftShoulder
      {
       OFFSET 13.519700 0.000000 0.000000
       CHANNELS 3 Yrotation Xrotation Zrotation
       JOINT LeftElbow
       {
        OFFSET 0.000000 -29.696600 0.000000
        CHANNELS 3 Yrotation Xrotation Zrotation
        JOINT LeftWrist
        {
         OFFSET 0.000000 -24.004700 0.000000
         CHANNELS 3 Yrotation Xrotation Zrotation
         End Site
         {
          OFFSET 0.000000 -17.728500 0.000000
         }
        }
       }
      }
     }
    }
   }
  }
 }
 JOINT RightHip
 {
  OFFSET -7.771700 -0.012900 -0.001300
  CHANNELS 3 Yrotation Xrotation Zrotation
  JOINT RightKnee
  {
   OFFSET 0.000000 -40.869800 0.001200
   CHANNELS 3 Yrotation Xrotation Zrotation
   JOINT RightAnkle
   {
    OFFSET 0.000000 -39.717900 0.002100
    CHANNELS 3 Yrotation Xrotation Zrotation
    JOINT RightToe
    {
     OFFSET 0.000000 -4.965400 11.033500
     CHANNELS 3 Yrotation Xrotation Zrotation
     End Site
     {
      OFFSET 0.000000 -1.423100 5.872300
     }
    }
   }
  }
 }
 JOINT LeftHip
 {
  OFFSET 7.771700 -0.012900 -0.001300
  CHANNELS 3 Yrotation Xrotation Zrotation
  JOINT LeftKnee
  {
   OFFSET 0.000000 -40.869800 0.001200
   CHANNELS 3 Yrotation Xrotation Zrotation
   JOINT LeftAnkle
   {
    OFFSET 0.000000 -39.717900 0.002100
    CHANNELS 3 Yrotation Xrotation Zrotation
    JOINT LeftToe
    {
     OFFSET 0.000000 -4.965400 11.033500
     CHANNELS 3 Yrotation Xrotation Zrotation
     End Site
     {
      OFFSET 0.000000 -1.423100 5.872300
     }
    }
   }
  }
 }
}
MOTION
Frames: 15
Frame Time: 0.008333
-54.392664 57.732017 11.764020 179.324155 -50.435649 -3.668983 4.686416 20.410002 3.383733 2.486575 11.700989 1.696071 3.119217 14.602013 2.243789 2.429579 11.694641 1.737384 1.672831 18.167394 5.230926 1.205296 -2.037713 9.191535 1.899128 -9.993798 -5.209681 24.140747 -43.883516 -47.188846 -48.582532 -33.711744 92.173552 -9.279299 -1.244389 -26.001918 0.463941 1.302154 10.016784 20.954873 0.035227 3.769332 70.937043 -73.024008 -82.444654 -5.125799 6.008585 -3.590170 4.852291 -20.927081 -3.670544 -29.534855 74.391577 -33.499552 7.328362 -13.188067 12.161855 -0.010939 -0.152186 0.051823 -7.950437 -18.928748 4.896287 88.280921 81.199990 87.480143 0.607133 -21.445186 -18.594011 0.032414 0.071182 0.014332
-54.389302 57.728966 11.765022 179.308884 -50.444180 -3.652662 4.660371 20.409973 3.383925 2.473699 11.708561 1.695991 3.097594 14.606533 2.262695 2.427148 11.700568 1.731146 1.581332 18.153088 5.225517 1.206972 -2.036064 9.089903 1.877357 -9.935939 -5.195512 23.980536 -43.867701 -47.091819 -48.704419 -33.858001 92.422999 -9.244461 -1.202483 -25.952690 0.407208 1.324433 9.975858 20.968639 0.045722 3.756711 70.920065 -73.028396 -82.427062 -5.110721 5.996843 -3.547815 4.852146 -20.930434 -3.677169 -29.522290 74.405002 -33.491874 7.341072 -13.170143 12.140873 -0.019306 -0.150895 0.049080 -7.941440 -18.919524 4.892010 88.262312 81.198777 87.459476 0.626071 -21.444726 -18.601817 0.022413 0.076237 0.012817
-54.385964 57.726758 11.765603 179.287166 -50.460064 -3.631420 4.647271 20.418869 3.384978 2.458183 11.710345 1.705297 3.067165 14.614008 2.277771 2.422583 11.707648 1.723682 1.563166 18.147391 5.179831 1.139482 -2.055292 9.043016 1.861409 -9.875212 -5.182800 23.824825 -43.850984 -47.006659 -48.821812 -33.985411 92.671068 -9.212788 -1.161490 -25.906991 0.348648 1.347548 9.930118 20.980690 0.060165 3.743962 70.908355 -73.032892 -82.407144 -5.115939 6.006663 -3.577150 4.846338 -20.932376 -3.682883 -29.517464 74.424606 -33.491082 7.361002 -13.150269 12.106800 -0.019039 -0.158955 0.052956 -7.930579 -18.899449 4.889597 88.208956 81.193424 87.404475 0.622630 -21.443892 -18.607448 0.026706 0.078051 0.012455
-54.380439 57.727326 11.764446 179.257705 -50.497484 -3.617974 4.663536 20.452165 3.399317 2.423107 11.707512 1.723736 3.047543 14.623746 2.282240 2.408688 11.713616 1.728395 1.529130 18.136169 5.138935 1.089515 -2.075518 8.979322 1.851579 -9.812968 -5.173473 23.674107 -43.833653 -46.931223 -48.934106 -34.093745 92.921902 -9.185140 -1.111221 -25.878449 0.346903 1.357710 9.871808 20.932810 0.074707 3.740700 70.766901 -73.048747 -82.332232 -5.099760 5.987810 -3.530229 4.856212 -20.904310 -3.674999 -29.559637 74.432291 -33.508218 7.381725 -13.140810 12.057556 -0.009636 -0.166545 0.068820 -7.921905 -18.852618 4.898937 88.142748 81.191844 87.337987 0.618656 -21.442663 -18.618441 0.034764 0.077366 0.013711
-54.377006 57.724848 11.766027 179.255078 -50.511087 -3.614284 4.630202 20.459073 3.403208 2.372021 11.712551 1.743351 3.053904 14.636885 2.264779 2.393350 11.719960 1.733151 1.479168 18.118583 5.102784 1.056972 -2.098333 8.898699 1.846644 -9.748326 -5.169194 23.530843 -43.816136 -46.863752 -49.043706 -34.182337 93.176740 -9.156700 -1.039976 -25.881883 0.268128 1.381137 9.820064 20.960285 0.093353 3.725711 70.687032 -73.057862 -82.272873 -5.088390 5.973939 -3.500447 4.857197 -20.894433 -3.675571 -29.572487 74.433848 -33.515674 7.389057 -13.130751 12.036393 -0.000050 -0.156864 0.069339 -7.924058 -18.836741 4.897153 88.106828 81.197444 87.305632 0.620730 -21.444394 -18.627067 0.040403 0.079961 0.015123
-54.374099 57.722308 11.768176 179.239052 -50.524587 -3.598850 4.600486 20.467293 3.401994 2.393843 11.719771 1.733533 2.999897 14.645524 2.293232 2.376720 11.727308 1.737858 1.447077 18.099064 5.057315 1.011483 -2.134307 8.826084 1.844166 -9.682015 -5.172164 23.396021 -43.801356 -46.799902 -49.152752 -34.253377 93.430898 -9.111000 -1.010266 -25.859472 0.193921 1.396316 9.763351 20.978731 0.117362 3.712764 70.650766 -73.067586 -82.229573 -5.083644 5.971007 -3.496244 4.860435 -20.892402 -3.676708 -29.577533 74.442512 -33.522271 7.389430 -13.113253 12.014867 -0.011570 -0.140004 0.058324 -7.935386 -18.814717 4.900731 88.062343 81.202410 87.243584 0.625909 -21.452172 -18.635932 0.033369 0.088476 0.017468
-54.370955 57.721080 11.770034 179.206735 -50.547595 -3.573839 4.581336 20.486077 3.404984 2.376834 11.726703 1.737552 2.977033 14.660721 2.297690 2.359368 11.736399 1.742576 1.435027 18.076824 5.002697 0.947846 -2.183436 8.762462 1.884624 -9.657137 -5.213646 23.190383 -43.756845 -46.681948 -49.263044 -34.311196 93.684705 -9.112017 -1.018595 -25.800109 0.146277 1.396764 9.699384 20.965537 0.144736 3.704209 70.611473 -73.078161 -82.186354 -5.081827 5.966334 -3.493954 4.859835 -20.890630 -3.673666 -29.579400 74.460247 -33.532082 7.398022 -13.089105 11.983870 -0.012091 -0.146527 0.059745 -7.925488 -18.787900 4.901009 88.030833 81.202830 87.204391 0.631776 -21.449778 -18.642668 0.033303 0.087263 0.017342
-54.368142 57.719870 11.772826 179.186780 -50.568242 -3.557487 4.520865 20.506917 3.402635 2.333263 11.746225 1.751056 3.035031 14.659598 2.254259 2.314190 11.755617 1.774746 1.462406 18.053469 4.931752 0.843404 -2.248222 8.722017 1.859326 -9.577257 -5.212665 23.104804 -43.752106 -46.646994 -49.381349 -34.358773 93.941234 -9.069243 -0.968642 -25.801327 0.095030 1.394691 9.633681 20.953215 0.166911 3.694809 70.564306 -73.085836 -82.139286 -5.077254 5.961259 -3.490815 4.860189 -20.881534 -3.667744 -29.584487 74.467471 -33.548192 7.405004 -13.078567 11.972717 -0.012402 -0.137078 0.048624 -7.924672 -18.763448 4.902009 87.990622 81.200673 87.154610 0.632738 -21.446952 -18.648662 0.032243 0.085335 0.016105
-54.364979 57.717853 11.777531 179.176368 -50.578889 -3.550904 4.474486 20.523555 3.405050 2.338322 11.753922 1.745937 3.038016 14.660808 2.248622 2.284873 11.771316 1.791604 1.419762 18.025231 4.900280 0.793185 -2.307459 8.640613 1.811245 -9.492110 -5.193883 23.024784 -43.744762 -46.614207 -49.508017 -34.398179 94.199611 -9.021169 -0.914339 -25.801538 0.021846 1.401529 9.586152 20.941475 0.180061 3.686291 70.507578 -73.088345 -82.084110 -5.070658 5.958156 -3.486256 4.852343 -20.880859 -3.658811 -29.566087 74.474726 -33.538866 7.400609 -13.067594 11.957791 -0.011173 -0.135999 0.050248 -7.932532 -18.749573 4.908800 87.967369 81.200568 87.119378 0.634455 -21.449544 -18.656622 0.031145 0.090999 0.019761
-54.358644 57.716544 11.783353 179.166677 -50.589789 -3.563046 4.442749 20.540130 3.423101 2.364745 11.753538 1.737653 2.979054 14.684461 2.276501 2.263173 11.788082 1.792997 1.324832 17.983833 4.869375 0.809054 -2.368170 8.515510 1.808704 -9.436811 -5.209426 22.906680 -43.724718 -46.553236 -49.635457 -34.431523 94.460336 -8.997191 -0.878343 -25.784675 -0.031202 1.398639 9.520870 20.925710 0.186554 3.679728 70.451221 -73.087323 -82.029453 -5.067225 5.954665 -3.482128 4.844015 -20.877637 -3.637811 -29.555610 74.469072 -33.505478 7.397528 -13.045579 11.915800 0.004582 -0.133334 0.059453 -7.943107 -18.734515 4.933528 87.953557 81.201057 87.097646 0.640659 -21.451055 -18.660142 0.024581 0.096270 0.016973
-54.352383 57.716562 11.789568 179.153760 -50.605986 -3.570387 4.411287 20.561684 3.435807 2.302957 11.780615 1.753917 2.997768 14.689312 2.259251 2.218113 11.815063 1.810506 1.331412 17.934608 4.789882 0.741067 -2.445575 8.442452 1.830083 -9.388371 -5.246969 22.787421 -43.707263 -46.490575 -49.764664 -34.463081 94.725194 -8.981684 -0.833727 -25.760367 -0.064670 1.388585 9.435447 20.907007 0.188733 3.676505 70.401483 -73.086403 -81.981054 -5.068535 5.952041 -3.479629 4.838032 -20.867777 -3.617765 -29.535544 74.458500 -33.469670 7.395808 -13.025503 11.890929 0.014463 -0.120129 0.053264 -7.942633 -18.715429 4.951697 87.910283 81.201947 87.054994 0.647421 -21.446871 -18.663633 0.022770 0.095171 0.012899
-54.344818 57.717267 11.796752 179.133040 -50.621959 -3.576970 4.387749 20.580903 3.454010 2.266220 11.801159 1.760311 2.925869 14.730933 2.279533 2.249988 11.808310 1.773788 1.275667 17.891935 4.741427 0.720408 -2.521926 8.339141 1.831099 -9.327274 -5.269723 22.670262 -43.690382 -46.432171 -49.902525 -34.498159 94.991692 -8.967480 -0.798485 -25.738336 -0.124408 1.388946 9.362534 20.892219 0.190096 3.680230 70.358871 -73.089045 -81.941393 -5.071881 5.954459 -3.478616 4.826220 -20.856966 -3.587726 -29.481876 74.442542 -33.411498 7.378721 -13.007196 11.874285 0.011713 -0.097700 0.038354 -7.949080 -18.694442 4.978383 87.865421 81.196663 87.003096 0.648473 -21.441680 -18.670235 0.017961 0.096231 0.010838
-54.336620 57.720222 11.803342 179.134906 -50.648597 -3.601898 4.363228 20.609208 3.476243 2.234630 11.818234 1.766521 2.880875 14.760425 2.291461 2.245573 11.818082 1.763900 1.219164 17.847084 4.691056 0.697855 -2.601333 8.233757 1.834096 -9.263511 -5.295747 22.553444 -43.674745 -46.377387 -50.028768 -34.558364 95.248158 -8.974794 -0.769465 -25.719585 -0.196248 1.386840 9.279889 20.884566 0.192904 3.694722 70.323592 -73.094520 -81.911640 -5.075560 5.960824 -3.478090 4.802078 -20.821424 -3.554234 -29.377940 74.423524 -33.308261 7.368600 -13.016790 11.864501 0.000468 -0.068406 0.032634 -7.970536 -18.661175 5.008523 87.826753 81.200004 86.955141 0.651261 -21.437734 -18.677509 0.016241 0.097242 0.011497
-54.329902 57.723241 11.810562 179.122168 -50.671434 -3.604309 4.366111 20.631581 3.489268 2.182280 11.836605 1.777894 2.855878 14.782232 2.295705 2.225406 11.835441 1.767638 1.232502 17.801974 4.621388 0.602185 -2.689976 8.165367 1.837375 -9.199793 -5.324355 22.429555 -43.659827 -46.318459 -50.172190 -34.619983 95.507142 -8.964315 -0.735060 -25.691373 -0.280465 1.383333 9.187962 20.877594 0.196818 3.721392 70.291110 -73.099727 -81.881947 -5.079532 5.965159 -3.477080 4.815354 -20.787256 -3.535055 -29.283885 74.419629 -33.196370 7.292208 -13.089605 11.871240 0.014652 0.019473 0.021807 -7.985621 -18.633426 5.030133 87.799388 81.203272 86.910783 0.652535 -21.431959 -18.682937 0.012357 0.095909 0.012198
-54.322392 57.730713 11.814619 179.110674 -50.723563 -3.610810 4.335163 20.685940 3.503024 2.163290 11.853316 1.780850 2.831090 14.803690 2.299871 2.205418 11.852522 1.771308 1.171400 17.756637 4.567570 0.575509 -2.771998 8.054613 1.841228 -9.134867 -5.353971 22.296597 -43.644432 -46.252840 -50.333811 -34.685007 95.770875 -8.941942 -0.707808 -25.662677 -0.373176 1.382081 9.090686 20.864337 0.202680 3.757216 70.260609 -73.104403 -81.849056 -5.082441 5.966003 -3.473611 4.841267 -20.723714 -3.508604 -29.178182 74.432191 -33.074719 7.232640 -13.159574 11.883280 0.007232 0.073756 0.007925 -7.988249 -18.575893 5.046478 87.765966 81.204850 86.868123 0.654142 -21.421192 -18.683973 0.008024 0.085379 0.008392
